PathFileType	4	(X/Y/Z)	 s11c0301.trc
DataRate	CameraRate	NumFrames	NumMarkers	Units	OrigDataRate	OrigDataStartFrame	OrigNumFrames
200	200	6	48	mm	200	1501	2000
Frame#	Time	racr			lacr			c7			jug			rlel			rdr			llel			ldr			s2			lic			ric			lasi			rasi			rpsi			lpsi			rgt			lgt			rth1			rth2			rth3			rth4			rlfc			rmfc			rsh1			rsh2			rsh3			rsh4			rlmal			rcal			rtoe			rmt5			lth1			lth2			lth4			lth3			llfc			lmfc			llmal			lcal			lmt5			lsh1			lsh2			lsh3			lsh4			ltoe			SBIKE			LBIKE			RBIKE			
		X1	Y1	Z1	X2	Y2	Z2	X3	Y3	Z3	X4	Y4	Z4	X5	Y5	Z5	X6	Y6	Z6	X7	Y7	Z7	X8	Y8	Z8	X9	Y9	Z9	X10	Y10	Z10	X11	Y11	Z11	X12	Y12	Z12	X13	Y13	Z13	X14	Y14	Z14	X15	Y15	Z15	X16	Y16	Z16	X17	Y17	Z17	X18	Y18	Z18	X19	Y19	Z19	X20	Y20	Z20	X21	Y21	Z21	X22	Y22	Z22	X23	Y23	Z23	X24	Y24	Z24	X25	Y25	Z25	X26	Y26	Z26	X27	Y27	Z27	X28	Y28	Z28	X29	Y29	Z29	X30	Y30	Z30	X31	Y31	Z31	X32	Y32	Z32	X33	Y33	Z33	X34	Y34	Z34	X35	Y35	Z35	X36	Y36	Z36	X37	Y37	Z37	X38	Y38	Z38	X39	Y39	Z39	X40	Y40	Z40	X41	Y41	Z41	X42	Y42	Z42	X43	Y43	Z43	X44	Y44	Z44	X45	Y45	Z45	X46	Y46	Z46	X47	Y47	Z47	X48	Y48	Z48	
1501	7.5050	834.742371	1334.524285	-20.263906	872.996673	1297.117109	-352.172594	843.790809	1407.094884	-197.914939	784.656574	1228.020507	-182.898242	667.444654	1123.910221	106.087497	794.766557	930.282817	-25.345902	678.023090	1151.302741	-573.259917	813.693185	925.983393	-445.720373	223.331403	1303.451436	-262.673376	456.655854	1233.354157	-429.550680	420.967952	1295.938888	-41.192075	463.628734	1167.294090	-384.898400	434.316382	1227.492285	-82.052487	280.215294	1371.811954	-219.300337	284.077673	1350.798301	-310.110345	363.534140	1178.346049	-13.128266	310.452482	1134.527409	-435.840413	473.423201	1088.386077	0.616023	554.328544	1050.626981	-5.425598	605.457072	978.748277	-9.717439	575.680191	1077.314898	-19.357405	681.430367	899.853680	-20.209388	692.746682	878.814364	-140.800246	564.622784	792.514804	-20.542378	513.007156	727.056560	-45.222471	432.416479	693.052814	-55.264211	532.795391	709.097496	-73.991974	317.195453	623.234302	-78.270918	274.601655	669.782062	-128.538823	388.328869	405.666849	-136.999144	329.337959	450.102374	-67.694604	325.973047	1005.119414	-447.839277	346.758661	923.176622	-437.241187	382.782610	922.417631	-429.264173	322.039211	836.894960	-429.096699	312.753616	694.620355	-407.045877	317.360527	681.957095	-275.442476	165.123223	288.712072	-410.922393	102.374883	281.059389	-380.078777	261.649050	143.956331	-443.983441	258.147991	580.215468	-433.992530	256.069076	494.716521	-425.258114	211.380101	418.685022	-424.679707	287.727218	487.221018	-404.332821	356.639410	123.952576	-372.998780	-204.362445	957.627503	-262.328580	1.412769	82.460370	-461.020583	-15.159384	81.284621	-62.530786	
1502	7.5100	833.053280	1333.894546	-16.009265	874.394202	1298.982165	-348.042497	843.445310	1407.390046	-194.316706	785.070535	1228.007170	-180.315093	665.631035	1122.934733	107.190976	794.628610	930.473902	-25.280655	682.772532	1152.912694	-571.702454	814.472605	925.893512	-445.341579	222.051955	1304.538796	-264.925098	459.364234	1233.684582	-429.212858	417.707682	1296.420461	-40.691037	465.561129	1167.494826	-383.846987	432.575891	1228.939961	-81.852787	279.251269	1372.320694	-221.866379	284.760951	1351.778167	-312.649533	362.714216	1180.681510	-13.510264	312.373171	1135.172997	-436.807191	473.257939	1089.997610	0.229565	554.773955	1053.231974	-5.693167	606.612054	982.089144	-9.638603	575.925904	1080.452200	-18.651670	684.932664	906.062621	-20.376612	696.001191	886.196849	-144.489631	571.367881	796.524626	-20.696200	519.861701	729.855897	-46.244782	440.877147	694.816156	-55.371583	540.919148	712.858307	-74.242020	324.895299	622.218609	-78.444249	281.195941	667.758908	-128.817830	400.156158	405.959162	-136.644364	340.814651	449.607183	-66.958447	326.918190	1006.826405	-448.488526	346.947901	924.661968	-438.055394	382.893125	923.513945	-429.976890	321.347357	838.578536	-430.263580	309.999716	696.269832	-409.240685	316.592622	682.227485	-277.470010	157.550103	292.113297	-411.934327	94.696828	285.465158	-380.811957	251.552135	145.507040	-444.340873	254.360107	582.349539	-435.731421	251.225933	496.780168	-426.869239	205.526241	421.353379	-426.024135	282.960825	488.895655	-406.265623	346.165437	124.016759	-373.267904	-204.353522	957.673111	-262.274104	1.425833	82.476335	-461.018803	-15.155010	81.325700	-62.534581	
1503	7.5150	831.324970	1333.011950	-12.341343	875.623059	1300.425979	-343.979967	842.864254	1407.521417	-190.802866	785.471038	1227.754505	-178.010587	663.823118	1122.100910	108.123683	794.461325	930.693543	-25.193631	686.825895	1154.565016	-569.834863	815.147533	925.695345	-444.839115	222.069120	1305.460314	-268.159288	461.946107	1233.982149	-429.066085	414.699141	1297.448011	-40.455932	467.308045	1167.428614	-383.366301	431.151566	1230.527684	-81.504147	278.248549	1373.298048	-224.138178	285.430539	1352.962912	-315.088732	361.917803	1182.799013	-14.137854	314.404113	1136.214680	-437.839706	473.009056	1091.744610	0.077006	554.800705	1055.935299	-5.573335	607.667481	985.331586	-9.910413	575.929589	1083.083134	-18.131243	687.990060	911.959743	-20.811449	698.759633	893.081292	-147.976007	577.844391	800.120910	-20.871267	527.533484	732.523501	-46.407633	449.216418	696.087377	-55.497387	548.758545	715.747552	-74.396552	332.147917	620.424713	-78.673551	287.235779	664.972900	-129.148242	411.810864	405.770321	-136.236763	351.491396	448.401320	-66.677683	328.238481	1008.910863	-449.447573	347.565939	926.400255	-438.926706	383.476011	925.015172	-430.687518	321.485393	840.308226	-431.765666	308.800083	698.110362	-411.505204	316.918830	682.695210	-279.576046	150.200390	296.039692	-413.040978	87.308246	290.492056	-381.498664	241.546315	147.626242	-444.753635	251.977026	584.654948	-437.485605	247.376590	499.235009	-428.483900	200.391668	424.516517	-427.342569	279.150623	490.797921	-408.133895	335.705072	124.724034	-373.596805	-204.342981	957.710988	-262.256407	1.438898	82.513042	-461.030545	-15.150766	81.334075	-62.548578	
1504	7.5200	829.679320	1331.969708	-9.098997	876.819208	1301.518404	-339.943297	842.679392	1407.329313	-187.448194	785.575687	1227.411522	-175.854326	662.228205	1121.257403	108.966052	794.205698	930.965841	-25.097378	690.403120	1156.339320	-567.775851	816.411584	925.511766	-444.468359	223.362864	1306.364936	-272.345805	464.294526	1234.500166	-428.776119	412.027750	1298.708734	-40.258951	468.864947	1167.215946	-383.130197	430.006765	1232.490010	-80.603635	277.822977	1374.665670	-226.361281	286.029024	1354.451202	-317.447015	361.224964	1184.681073	-14.854656	316.368749	1137.717123	-438.926163	472.580868	1093.167096	-0.632403	554.732748	1058.247094	-5.419583	608.426186	988.275632	-9.908991	575.809690	1085.775266	-17.690252	690.233556	917.271896	-21.120819	701.022308	899.324965	-151.062102	583.960045	803.336109	-20.799812	534.762474	734.793443	-46.492092	456.908878	696.923983	-55.523632	556.079724	719.042106	-75.185135	338.883885	617.970824	-78.919533	292.520749	661.413372	-129.492349	423.406204	405.187225	-135.856384	362.147459	446.500287	-66.433113	329.723672	1010.744563	-450.087140	348.818235	928.298752	-439.758691	384.677005	926.798561	-431.430859	322.568641	842.244728	-433.390737	309.181199	699.835171	-413.798180	318.233356	683.376244	-281.631924	143.136872	300.458666	-414.157653	80.148373	296.308332	-382.158845	231.628309	150.411085	-445.038270	251.043858	587.149176	-439.243152	244.639414	501.807842	-430.052176	196.060257	428.221170	-428.696412	276.323303	492.936604	-409.975315	325.405498	125.906404	-373.795459	-204.378612	957.743569	-262.238414	1.415495	82.532890	-461.034829	-15.146923	81.371831	-62.558036	
1505	7.5250	828.312661	1330.754020	-6.023892	877.475634	1302.209096	-335.727877	842.088185	1407.031402	-183.890849	785.732934	1226.826297	-173.509603	660.686004	1120.522252	109.622522	793.891913	931.290513	-24.940778	693.362953	1158.021447	-565.554520	817.315046	925.279583	-444.145968	222.431402	1308.506836	-273.176266	466.189485	1235.458293	-428.338940	409.899578	1300.349785	-40.150112	470.182837	1167.534555	-382.795240	429.036911	1234.619602	-79.569177	278.069441	1376.387057	-228.549420	286.560013	1356.348456	-319.100658	360.490751	1186.372861	-15.597184	318.251753	1139.469835	-440.040558	472.048629	1094.612236	-1.381459	554.505391	1060.458524	-5.347326	608.845867	990.954859	-10.046516	575.501796	1088.148385	-17.444936	688.545167	923.157853	-18.378216	702.789515	904.785141	-153.550644	588.413403	805.595065	-20.520465	540.125311	735.420266	-46.713476	463.115779	696.348726	-55.422931	562.461733	720.484212	-75.585696	345.061694	614.782191	-79.194244	297.380835	656.991750	-129.888137	434.730951	404.112225	-135.386401	372.412758	444.199174	-66.126900	331.541710	1012.676104	-450.669420	350.778467	930.279816	-440.509989	386.572581	928.820362	-432.031878	324.786429	843.997643	-434.973681	311.211756	701.421411	-415.920963	321.035671	684.047230	-283.699678	136.432970	305.545223	-415.233450	73.459259	302.670614	-382.655950	221.993568	153.999948	-445.375949	251.549793	589.661536	-440.991045	242.988443	504.537659	-431.587085	192.559363	432.196063	-430.018371	274.507889	494.949455	-411.368880	315.271298	127.790379	-374.143353	-204.421160	957.763332	-262.239044	1.416751	82.585582	-461.004241	-15.165951	81.399768	-62.566903	
1506	7.5300	827.149107	1329.373653	-3.430935	878.036991	1302.587297	-331.661387	841.771677	1406.470326	-180.486417	785.713462	1226.127492	-171.353456	658.808485	1119.695603	110.142012	793.531705	931.696619	-24.739446	695.944686	1159.820969	-563.295169	817.710164	925.022177	-443.868161	222.071539	1311.166500	-273.736514	467.532451	1237.150110	-427.807903	408.288745	1302.311513	-39.901032	471.046926	1168.748314	-382.038360	428.203949	1236.776274	-78.598751	276.612436	1379.385751	-227.915750	286.985327	1359.135251	-319.961341	359.791770	1188.081738	-16.072534	320.028839	1141.632291	-441.208676	471.524713	1096.423584	-1.413417	554.160895	1062.452752	-5.406352	608.835160	993.180762	-10.392642	575.083328	1090.259972	-17.381827	686.085901	929.803682	-17.266317	704.061553	909.319092	-155.244358	590.792084	805.904432	-21.148636	543.814976	734.725003	-47.073559	467.507057	694.230560	-55.340106	566.147018	720.270457	-76.303760	350.610721	610.963568	-79.398065	301.944580	651.904001	-130.184629	445.501621	402.507099	-135.243443	382.374464	441.170718	-65.852139	333.767096	1014.501108	-450.817352	353.450189	932.348523	-441.277586	389.190756	931.110745	-432.655332	328.271387	846.057871	-436.606446	314.762850	702.876051	-417.986936	324.938461	685.239394	-286.058198	130.154748	311.421161	-416.144032	67.074857	309.785628	-382.978861	212.584520	158.187359	-445.655413	253.381450	592.264644	-442.760456	242.389833	507.406619	-433.042047	189.950169	436.587547	-431.356378	273.511215	497.299999	-412.886055	305.386002	130.318004	-374.512852	-204.563658	957.848331	-261.915780	1.423613	82.588887	-461.024007	-15.163102	81.468624	-62.613244	
